<?xml version="1.0" encoding="utf-8"?>
<svg version="1.1" style="" width="836" height="159" xmlns="http://www.w3.org/2000/svg">
  <defs>
    <linearGradient gradientUnits="userSpaceOnUse" x1="378.059" y1="75.529" x2="378.059" y2="157.329" id="gradient-1" gradientTransform="matrix(0.954556, 0.298045, -0.539752, 1.728668, 85.543888, -238.35797)">
      <stop offset="0" style="stop-color: rgb(251, 249, 255);"/>
      <stop offset="1" style="stop-color: rgb(245, 212, 89);"/>
    </linearGradient>
    <linearGradient gradientUnits="userSpaceOnUse" x1="536.294" y1="75.524" x2="536.294" y2="157.324" id="gradient-0" gradientTransform="matrix(0.832292, 0.554339, -1.025535, 1.539759, 222.583572, -355.713382)">
      <stop offset="0" style="stop-color: rgb(245, 243, 241);"/>
      <stop offset="1" style="stop-color: rgb(245, 212, 89);"/>
    </linearGradient>
  </defs>
  <rect id="backgroundrect" width="100%" height="100%" x="0" y="0" fill="none" stroke="none"/>
  <style type="text/css">
	.st0{fill:#FFFFFF;}
	.st1{fill:url(#XMLID_5_);}
</style>
  <g class="currentLayer" style="">
    <title>Layer 1</title>
    <g id="XMLID_1_" class="">
      <path id="XMLID_333_" class="st0" d="M0,52.599999999999994 v-41.2 h22.5 c0.1,0.6000000000000001 0.2,1.2 0.2,1.8 c0.1,0.6000000000000001 0.2,1.2 0.30000000000000004,1.8 h-18.2 v14.7 h11.9 c0.1,0.6000000000000001 0.2,1.2 0.2,1.8 c0.1,0.6000000000000001 0.2,1.2 0.30000000000000004,1.8 h-12.4 v15.4 h19.5 l0.5,3.8 L0,52.599999999999994 L0,52.599999999999994 z"/>
      <path id="XMLID_331_" class="st0" d="M32.6,52.599999999999994 v-41.2 h22.5 c0.1,0.6000000000000001 0.2,1.2 0.2,1.8 c0.1,0.6000000000000001 0.2,1.2 0.30000000000000004,1.8 h-18.3 v14.7 h11.9 c0.1,0.6000000000000001 0.2,1.2 0.2,1.8 c0.1,0.6000000000000001 0.2,1.2 0.30000000000000004,1.8 h-12.4 v15.4 h19.5 l0.5,3.8 L32.6,52.599999999999994 L32.6,52.599999999999994 z"/>
      <path id="XMLID_329_" class="st0" d="M64,46.80000000000001 c1.1,0.5 2.6,1.1 4.4,1.6 c1.8,0.6000000000000001 3.7,0.8 5.7,0.8 c3.2,0 5.6,-0.6000000000000001 7.3,-1.8 c1.7000000000000002,-1.2 2.5,-2.8 2.5,-4.8 c0,-4.4 -3.6,-7.5 -10.9,-9.5 s-10.9,-6.1 -10.9,-12.3 c0,-2.9 1.2,-5.4 3.5,-7.4 c2.3,-2 5.6,-3 9.6,-3 c2.1,0 4,0.30000000000000004 5.8,0.8 s3.4,1.1 4.7,1.8 c-0.2,0.6000000000000001 -0.5,1.3 -0.8,1.9 c-0.30000000000000004,0.6000000000000001 -0.6000000000000001,1.2 -0.9,1.9 c-1,-0.5 -2.2,-1 -3.6,-1.5 c-1.3,-0.4 -3,-0.7000000000000001 -5,-0.7000000000000001 c-2.5,0 -4.6,0.5 -6.3,1.6 c-1.7000000000000002,1 -2.5,2.6 -2.5,4.5 c0,4.5 3.6,7.7 10.9,9.7 s10.9,6 10.9,12 c0,3.1 -1.3,5.7 -3.8,7.8 c-2.5,2 -6.1,3.1 -10.7,3.1 c-1.7000000000000002,0 -3.9,-0.30000000000000004 -6.4,-0.9 s-4.2,-1.2 -4.9,-1.9 c0.2,-0.6000000000000001 0.30000000000000004,-1.2 0.5,-1.8 C63.6,48.099999999999994 63.8,47.5 64,46.80000000000001 z"/>
      <path id="XMLID_324_" class="st0" d="M123.2,15.199999999999989 H110 V52.5 h-4.8 v-37.3 H92.3 v-3.8 h30.4 L123.2,15.199999999999989 z"/>
      <path id="XMLID_322_" class="st0" d="M129.8,52.599999999999994 v-41.2 h4.8 v41.2 H129.8 z"/>
      <path id="XMLID_317_" class="st0" d="M166,52.599999999999994 v-41.2 h22.5 c0.1,0.6000000000000001 0.2,1.2 0.2,1.8 c0.1,0.6000000000000001 0.2,1.2 0.30000000000000004,1.8 h-18.3 v14.7 h11.9 c0.1,0.6000000000000001 0.2,1.2 0.2,1.8 c0.1,0.6000000000000001 0.2,1.2 0.30000000000000004,1.8 h-12.4 v15.4 h19.5 l0.5,3.8 L166,52.599999999999994 L166,52.599999999999994 z"/>
      <path id="XMLID_315_" class="st0" d="M224.1,15.199999999999989 h-13.3 V52.5 H206 v-37.3 h-12.9 v-3.8 h30.4 L224.1,15.199999999999989 z"/>
      <path id="XMLID_310_" class="st0" d="M256.2,15.199999999999989 h-13.3 V52.5 h-4.8 v-37.3 h-12.9 v-3.8 h30.4 L256.2,15.199999999999989 z"/>
      <path id="XMLID_308_" class="st0" d="M262.8,52.599999999999994 v-41.2 h22.5 c0.1,0.6000000000000001 0.2,1.2 0.2,1.8 c0.1,0.6000000000000001 0.2,1.2 0.30000000000000004,1.8 h-18.3 v14.7 h11.9 c0.1,0.6000000000000001 0.2,1.2 0.2,1.8 c0.1,0.6000000000000001 0.2,1.2 0.30000000000000004,1.8 h-12.4 v15.4 H287 l0.5,3.8 L262.8,52.599999999999994 L262.8,52.599999999999994 z"/>
      <path id="XMLID_306_" class="st0" d="M305.5,52.599999999999994 l-15.7,-40.4 l4.7,-0.8 l13.4,34.9 l13,-34.9 h4.7 l-15.3,41.2 L305.5,52.599999999999994 L305.5,52.599999999999994 z"/>
      <path id="XMLID_302_" class="st0" d="M348.2,10.400000000000006 c6.3,0 10.9,2.1 13.8,6.4 s4.3,9.2 4.3,14.9 c0,5.9 -1.6,10.9 -4.7,15.1 c-3.1,4.2 -7.7,6.4 -13.7,6.5 c-6.3,0 -10.9,-2.1 -13.7,-6.4 c-2.8,-4.3 -4.2,-9.2 -4.2,-14.9 c0,-6.1 1.6,-11.2 4.7,-15.3 C337.7,12.699999999999989 342.2,10.599999999999994 348.2,10.400000000000006 zM335,32.099999999999994 c0,4.8 1,8.8 3.1,12.2 c2.1,3.3 5.3,5 9.7,5 c4.1,0 7.3,-1.6 9.7,-4.8 c2.4,-3.2 3.6,-7.5 3.6,-12.7 c0,-4.7 -1,-8.7 -3.1,-12.1 c-2.1,-3.3 -5.3,-5 -9.7,-5 c-4,0 -7.3,1.6 -9.7,4.9 C336.2,22.80000000000001 335,27 335,32.099999999999994 zM353.6,0.9000000000000057 h3.3 c0,2.3 -0.5,3.8 -1.6,4.7 c-1,0.9 -2.3,1.3 -3.8,1.3 c-1.4,0 -2.6,-0.5 -3.6,-1.4 s-2,-1.4 -3.1,-1.4 c-0.5,0 -1,0.2 -1.5,0.6000000000000001 c-0.4,0.4 -0.7000000000000001,1 -0.7000000000000001,1.8 h-3.3 v-0.30000000000000004 c0,-2.1 0.5,-3.5 1.6,-4.3 s2.3,-1.2 3.8,-1.2 c1.6,0 2.9,0.4 3.8,1.3 s1.9,1.3 3,1.3 c0.5,0 1,-0.2 1.4,-0.6000000000000001 C353.3,2.3000000000000114 353.5,1.8000000000000114 353.6,0.9000000000000057 z"/>
      <path id="XMLID_300_" class="st0" d="M401.9,15.199999999999989 h-13.3 V52.5 h-4.8 v-37.3 h-12.9 v-3.8 h30.4 L401.9,15.199999999999989 z"/>
      <path id="XMLID_298_" class="st0" d="M408.5,52.599999999999994 v-41.2 H431 c0.1,0.6000000000000001 0.2,1.2 0.2,1.8 c0.1,0.6000000000000001 0.2,1.2 0.30000000000000004,1.8 h-18.3 v14.7 h11.9 c0.1,0.6000000000000001 0.2,1.2 0.2,1.8 c0.1,0.6000000000000001 0.2,1.2 0.30000000000000004,1.8 h-12.4 v15.4 h19.5 l0.5,3.8 L408.5,52.599999999999994 L408.5,52.599999999999994 z"/>
      <path id="XMLID_296_" class="st0" d="M466.6,15.199999999999989 h-13.3 V52.5 h-4.8 v-37.3 h-12.9 v-3.8 H466 L466.6,15.199999999999989 z"/>
      <path id="XMLID_294_" class="st0" d="M473.2,52.599999999999994 v-41.2 h22.5 c0.1,0.6000000000000001 0.2,1.2 0.2,1.8 c0.1,0.6000000000000001 0.2,1.2 0.30000000000000004,1.8 H478 v14.7 h11.9 c0.1,0.6000000000000001 0.2,1.2 0.2,1.8 c0.1,0.6000000000000001 0.2,1.2 0.30000000000000004,1.8 H478 v15.4 h19.5 l0.5,3.8 L473.2,52.599999999999994 L473.2,52.599999999999994 z"/>
      <g id="XMLID_270_">
        <path id="XMLID_291_" class="st0" d="M534.7,43.099999999999994 v-32.3 h4.8 v33.4 c0,2.5 -0.4,4.6 -1.7000000000000002,5.7 c-3.4,3 -6.5,3.4 -10.7,3.4 c-0.2,-0.5 -0.30000000000000004,-0.9 -0.5,-1.6 c-0.2,-0.6000000000000001 -0.4,-1.2 -0.5,-1.8 c1.4,-0.1 5.7,0.1 7.6,-2.2 C534.4,46.900000000000006 534.7,45.400000000000006 534.7,43.099999999999994 z"/>
        <path id="XMLID_287_" class="st0" d="M567.9,9.800000000000011 c6.3,0 10.9,2.1 13.8,6.4 c2.9,4.3 4.3,9.2 4.3,14.9 c0,5.9 -1.6,10.9 -4.7,15.1 c-3.1,4.2 -7.7,6.4 -13.7,6.5 c-6.3,0 -10.9,-2.1 -13.7,-6.4 c-2.8,-4.3 -4.2,-9.2 -4.2,-14.9 c0,-6.1 1.6,-11.2 4.7,-15.3 C557.5,12.099999999999994 562,10 567.9,9.800000000000011 zM554.7,31.5 c0,4.8 1,8.8 3.1,12.2 c2.1,3.3 5.3,5 9.7,5 c4.1,0 7.3,-1.6 9.7,-4.8 c2.4,-3.2 3.6,-7.5 3.6,-12.7 c0,-4.7 -1,-8.7 -3.1,-12.1 c-2.1,-3.3 -5.3,-5 -9.7,-5 c-4,0 -7.3,1.6 -9.7,4.9 C555.9,22.19999999999999 554.7,26.400000000000006 554.7,31.5 zM573.4,0.30000000000001137 h3.3 c0,2.3 -0.5,3.8 -1.6,4.7 c-1,0.9 -2.3,1.3 -3.8,1.3 c-1.4,0 -2.6,-0.5 -3.6,-1.4 s-2,-1.4 -3.1,-1.4 c-0.5,0 -1,0.2 -1.5,0.6000000000000001 c-0.4,0.4 -0.7000000000000001,1 -0.7000000000000001,1.8 h-3.3 V5.5 c0,-2.1 0.5,-3.5 1.6,-4.3 s2.3,-1.2 3.8,-1.2 c1.6,0 2.9,0.4 3.8,1.3 s1.9,1.3 3,1.3 c0.5,0 1,-0.2 1.4,-0.6000000000000001 C573.1,1.5999999999999943 573.3,1.1999999999999886 573.4,0.30000000000001137 z"/>
        <path id="XMLID_285_" class="st0" d="M600.4,36.80000000000001 c0,3.5 1,6.4 2.9,8.6 s4.5,3.3 7.8,3.3 c3.4,0 6,-1.1 7.9,-3.3 c1.9,-2.2 2.8,-5.1 2.8,-8.5 v-26 h4.8 v26.5 c0,4.4 -1.4,8.1 -4.1,11 c-2.8,2.9 -6.5,4.3 -11.3,4.3 s-8.5,-1.4 -11.3,-4.3 s-4.1,-6.5 -4.1,-11 v-26.6 h4.8 v26 H600.4 z"/>
        <path id="XMLID_283_" class="st0" d="M662.2,52 h-24.1 v-41.2 h4.7 v37.3 h18.8 L662.2,52 z"/>
        <path id="XMLID_281_" class="st0" d="M673.5,36.80000000000001 c0,3.5 1,6.4 2.9,8.6 s4.5,3.3 7.8,3.3 c3.4,0 6,-1.1 7.9,-3.3 c1.9,-2.2 2.8,-5.1 2.8,-8.5 v-26 h4.8 v26.5 c0,4.4 -1.4,8.1 -4.1,11 c-2.8,2.9 -6.6,4.3 -11.3,4.3 c-4.8,0 -8.5,-1.4 -11.3,-4.3 s-4.1,-6.5 -4.1,-11 v-26.6 h4.8 v26 H673.5 z"/>
        <path id="XMLID_278_" class="st0" d="M711.2,52 v-41.2 h11.2 c4.3,0 7.9,1 10.8,2.9 c2.9,1.9 4.4,5.2 4.4,9.7 s-1.6,7.8 -4.7,9.9 c-3.1,2.1 -6.8,3.1 -11.2,3.1 h-5.8 v15.6 H711.2 zM722.4,14.900000000000006 h-6.5 v17.5 h6 c3,0 5.5,-0.7000000000000001 7.5,-2 c2,-1.4 3.1,-3.6 3.1,-6.7 c0,-3.3 -0.9,-5.6 -2.8,-6.8 C728,15.5 725.5,14.900000000000006 722.4,14.900000000000006 z"/>
        <path id="XMLID_276_" class="st0" d="M746.5,52 v-41.2 h4.8 v41.2 H746.5 z"/>
        <path id="XMLID_273_" class="st0" d="M763.3,52 v-41.2 h13.9 c6.3,0 10.9,2 13.7,5.9 c2.8,4 4.2,8.8 4.2,14.4 c0,5.9 -1.6,10.8 -4.7,14.8 s-7.7,6 -13.7,6 h-13.4 V52 zM777.4,14.900000000000006 h-9.3 v33.1 h8.7 c4.1,0 7.4,-1.5 9.9,-4.4 s3.8,-7.1 3.8,-12.3 c0,-4.7 -1.1,-8.6 -3.2,-11.7 C785.1,16.5 781.8,14.900000000000006 777.4,14.900000000000006 z"/>
        <path id="XMLID_271_" class="st0" d="M809.6,36.80000000000001 c0,3.5 1,6.4 2.9,8.6 s4.5,3.3 7.8,3.3 c3.4,0 6,-1.1 7.9,-3.3 c1.9,-2.2 2.8,-5.1 2.8,-8.5 v-26 h4.8 v26.5 c0,4.4 -1.4,8.1 -4.1,11 c-2.8,2.9 -6.6,4.3 -11.3,4.3 c-4.8,0 -8.5,-1.4 -11.3,-4.3 s-4.1,-6.5 -4.1,-11 v-26.6 h4.8 v26 H809.6 z"/>
      </g>
    </g>
    <path id="XMLID_367_" class="st1" d="M313.5588240623474,75.52941179275513 C319.4588240623474,75.52941179275513 323.9588240623474,77.32941179275514 327.15882406234743,80.82941179275514 C330.2588240623474,84.4294117927551 331.8588240623474,88.52941179275513 331.8588240623474,93.22941179275512 C331.8588240623474,98.4294117927551 330.7588240623474,103.12941179275515 328.5588240623474,107.32941179275514 C326.3588240623474,111.52941179275513 323.2588240623474,115.52941179275513 319.0588240623474,119.32941179275514 C314.8588240623474,123.12941179275515 309.7588240623474,127.02941179275513 303.65882406234743,130.9294117927551 C297.5588240623474,134.82941179275514 290.65882406234743,139.12941179275515 282.7588240623474,143.82941179275514 C286.4588240623474,145.02941179275513 290.65882406234743,146.12941179275515 295.5588240623474,147.12941179275515 C300.4588240623474,148.12941179275515 305.8588240623474,148.52941179275513 311.7588240623474,148.52941179275513 C318.5588240623474,148.52941179275513 323.15882406234743,146.32941179275514 325.5588240623474,142.02941179275513 C326.2588240623474,141.32941179275514 326.8588240623474,141.32941179275514 327.5588240623474,141.9294117927551 C328.15882406234743,142.52941179275513 328.2588240623474,143.4294117927551 327.9588240623474,144.62941179275515 C325.5588240623474,148.62941179275515 322.5588240623474,151.72941179275512 319.0588240623474,153.9294117927551 C315.5588240623474,156.12941179275515 311.2588240623474,157.22941179275512 306.0588240623474,157.22941179275512 C301.15882406234743,157.22941179275512 296.9588240623474,156.72941179275512 293.2588240623474,155.82941179275514 C289.5588240623474,154.82941179275514 286.3588240623474,153.9294117927551 283.4588240623474,153.12941179275515 C280.5588240623474,152.22941179275512 277.9588240623474,151.72941179275512 275.65882406234743,151.4294117927551 C273.2588240623474,151.12941179275515 271.0588240623474,151.72941179275512 268.7588240623474,153.12941179275515 C267.2588240623474,154.02941179275513 265.9588240623474,154.82941179275514 264.9588240623474,155.52941179275513 C263.9588240623474,156.22941179275512 263.0588240623474,156.82941179275514 262.2588240623474,157.32941179275514 C261.3588240623474,157.32941179275514 260.9588240623474,156.72941179275512 260.9588240623474,155.62941179275515 C260.9588240623474,154.52941179275513 261.3588240623474,153.52941179275513 262.2588240623474,152.62941179275515 C269.7588240623474,147.52941179275513 277.0588240623474,143.02941179275513 284.15882406234743,138.9294117927551 C291.2588240623474,134.82941179275514 297.65882406234743,130.72941179275512 303.15882406234743,126.62941179275515 C308.7588240623474,122.52941179275513 313.15882406234743,118.22941179275512 316.4588240623474,113.62941179275515 C319.7588240623474,109.02941179275513 321.4588240623474,103.62941179275515 321.4588240623474,97.62941179275515 C321.4588240623474,93.12941179275515 320.0588240623474,89.62941179275515 317.2588240623474,87.22941179275512 C314.4588240623474,84.82941179275514 310.7588240623474,83.52941179275513 306.0588240623474,83.52941179275513 C300.4588240623474,83.52941179275513 295.8588240623474,85.4294117927551 292.0588240623474,89.32941179275514 C288.2588240623474,93.22941179275512 285.8588240623474,97.82941179275514 284.65882406234743,103.4294117927551 C284.15882406234743,103.9294117927551 283.5588240623474,103.9294117927551 282.8588240623474,103.4294117927551 C282.15882406234743,102.9294117927551 281.7588240623474,102.22941179275512 281.5588240623474,101.32941179275514 C282.2588240623474,98.22941179275512 283.5588240623474,95.12941179275515 285.3588240623474,92.02941179275513 C287.15882406234743,89.02941179275513 289.4588240623474,86.22941179275512 292.15882406234743,83.82941179275514 C294.8588240623474,81.4294117927551 298.0588240623474,79.4294117927551 301.65882406234743,77.9294117927551 C305.2588240623474,76.22941179275512 309.2588240623474,75.52941179275513 313.5588240623474,75.52941179275513 zM414.3588240623474,83.12941179275515 C410.2588240623474,78.12941179275515 404.3588240623474,75.52941179275513 396.4588240623474,75.52941179275513 C389.15882406234743,75.52941179275513 382.5588240623474,77.32941179275514 376.65882406234743,80.82941179275514 C370.7588240623474,84.4294117927551 365.5588240623474,88.82941179275514 361.2588240623474,94.22941179275512 C356.8588240623474,99.62941179275515 353.5588240623474,105.52941179275513 351.2588240623474,111.9294117927551 C348.8588240623474,118.32941179275514 347.7588240623474,124.32941179275514 347.7588240623474,129.9294117927551 C347.7588240623474,137.72941179275512 349.8588240623474,144.22941179275512 354.0588240623474,149.32941179275514 C358.2588240623474,154.4294117927551 364.2588240623474,157.02941179275513 372.0588240623474,157.02941179275513 C378.15882406234743,157.02941179275513 384.0588240623474,155.52941179275513 389.9588240623474,152.4294117927551 C395.7588240623474,149.4294117927551 400.9588240623474,145.32941179275514 405.4588240623474,140.12941179275515 C409.9588240623474,135.02941179275513 413.65882406234743,129.12941179275515 416.4588240623474,122.62941179275515 C419.2588240623474,116.12941179275515 420.65882406234743,109.32941179275514 420.65882406234743,102.12941179275515 C420.5588240623474,94.52941179275513 418.4588240623474,88.12941179275515 414.3588240623474,83.12941179275515 zM409.15882406234743,125.72941179275512 C407.3588240623474,130.52941179275513 404.8588240623474,134.62941179275515 401.8588240623474,138.12941179275515 C398.7588240623474,141.62941179275515 395.2588240623474,144.32941179275514 391.2588240623474,146.22941179275512 C387.2588240623474,148.12941179275515 383.15882406234743,149.12941179275515 378.9588240623474,149.12941179275515 C371.15882406234743,149.12941179275515 365.3588240623474,146.62941179275515 361.7588240623474,141.72941179275512 C358.0588240623474,136.72941179275512 356.2588240623474,130.22941179275512 356.2588240623474,122.02941179275513 C356.2588240623474,117.02941179275513 357.0588240623474,112.12941179275515 358.65882406234743,107.4294117927551 C360.2588240623474,102.72941179275512 362.4588240623474,98.62941179275515 365.4588240623474,95.02941179275513 C368.4588240623474,91.52941179275513 371.9588240623474,88.62941179275515 376.0588240623474,86.52941179275513 C380.15882406234743,84.4294117927551 384.7588240623474,83.4294117927551 389.7588240623474,83.4294117927551 C397.5588240623474,83.4294117927551 403.2588240623474,85.82941179275514 406.7588240623474,90.62941179275515 C410.2588240623474,95.4294117927551 411.9588240623474,101.9294117927551 411.9588240623474,110.02941179275513 C411.9588240623474,115.72941179275512 411.0588240623474,120.9294117927551 409.15882406234743,125.72941179275512 zM476.8588240623474,75.52941179275513 C482.7588240623474,75.52941179275513 487.2588240623474,77.32941179275514 490.4588240623474,80.82941179275514 C493.5588240623474,84.4294117927551 495.15882406234743,88.52941179275513 495.15882406234743,93.22941179275512 C495.15882406234743,98.4294117927551 494.0588240623474,103.12941179275515 491.8588240623474,107.32941179275514 C489.65882406234743,111.52941179275513 486.5588240623474,115.52941179275513 482.3588240623474,119.32941179275514 C478.15882406234743,123.12941179275515 473.0588240623474,127.02941179275513 466.9588240623474,130.9294117927551 C460.8588240623474,134.82941179275514 453.9588240623474,139.12941179275515 446.0588240623474,143.82941179275514 C449.7588240623474,145.02941179275513 453.9588240623474,146.12941179275515 458.8588240623474,147.12941179275515 C463.7588240623474,148.12941179275515 469.15882406234743,148.52941179275513 475.0588240623474,148.52941179275513 C481.8588240623474,148.52941179275513 486.4588240623474,146.32941179275514 488.8588240623474,142.02941179275513 C489.5588240623474,141.32941179275514 490.15882406234743,141.32941179275514 490.8588240623474,141.9294117927551 C491.4588240623474,142.52941179275513 491.5588240623474,143.4294117927551 491.2588240623474,144.62941179275515 C488.8588240623474,148.62941179275515 485.8588240623474,151.72941179275512 482.3588240623474,153.9294117927551 C478.8588240623474,156.12941179275515 474.5588240623474,157.22941179275512 469.3588240623474,157.22941179275512 C464.4588240623474,157.22941179275512 460.2588240623474,156.72941179275512 456.5588240623474,155.82941179275514 C452.8588240623474,154.82941179275514 449.65882406234743,153.9294117927551 446.7588240623474,153.12941179275515 C443.8588240623474,152.22941179275512 441.2588240623474,151.72941179275512 438.9588240623474,151.4294117927551 C436.5588240623474,151.12941179275515 434.3588240623474,151.72941179275512 432.0588240623474,153.12941179275515 C430.5588240623474,154.02941179275513 429.2588240623474,154.82941179275514 428.2588240623474,155.52941179275513 C427.2588240623474,156.22941179275512 426.3588240623474,156.82941179275514 425.5588240623474,157.32941179275514 C424.65882406234743,157.32941179275514 424.2588240623474,156.72941179275512 424.2588240623474,155.62941179275515 C424.2588240623474,154.52941179275513 424.65882406234743,153.52941179275513 425.5588240623474,152.62941179275515 C433.0588240623474,147.52941179275513 440.3588240623474,143.02941179275513 447.4588240623474,138.9294117927551 C454.5588240623474,134.82941179275514 460.9588240623474,130.72941179275512 466.4588240623474,126.62941179275515 C472.0588240623474,122.52941179275513 476.4588240623474,118.22941179275512 479.7588240623474,113.62941179275515 C483.0588240623474,109.02941179275513 484.7588240623474,103.62941179275515 484.7588240623474,97.62941179275515 C484.7588240623474,93.12941179275515 483.3588240623474,89.62941179275515 480.5588240623474,87.22941179275512 C477.7588240623474,84.82941179275514 474.0588240623474,83.52941179275513 469.3588240623474,83.52941179275513 C463.7588240623474,83.52941179275513 459.15882406234743,85.4294117927551 455.3588240623474,89.32941179275514 C451.65882406234743,93.12941179275515 449.15882406234743,97.82941179275514 447.9588240623474,103.4294117927551 C447.4588240623474,103.9294117927551 446.8588240623474,103.9294117927551 446.15882406234743,103.4294117927551 C445.4588240623474,102.9294117927551 445.0588240623474,102.22941179275512 444.8588240623474,101.32941179275514 C445.5588240623474,98.22941179275512 446.8588240623474,95.12941179275515 448.65882406234743,92.02941179275513 C450.4588240623474,89.02941179275513 452.7588240623474,86.22941179275512 455.4588240623474,83.82941179275514 C458.15882406234743,81.4294117927551 461.3588240623474,79.4294117927551 464.9588240623474,77.9294117927551 C468.5588240623474,76.22941179275512 472.5588240623474,75.52941179275513 476.8588240623474,75.52941179275513 z" style="fill: url(#gradient-1);"/>
    <g id="XMLID_3_" class="">
      <rect id="XMLID_114_" x="154.3262345790863" y="116.32939958572388" class="st0" width="78" height="2"/>
      <rect id="XMLID_2_" x="603.514261007309" y="116.80040788650513" class="st0" width="78" height="2"/>
    </g>
    <path id="path-1" class="st1" d="M553.44405991745,75.52441179275513 C559.34405991745,75.52441179275513 563.84405991745,77.32441179275514 567.04405991745,80.82441179275514 C570.1440599174499,84.42441179275511 571.7440599174499,88.52441179275513 571.7440599174499,93.22441179275512 C571.7440599174499,98.42441179275511 570.6440599174499,103.12441179275515 568.44405991745,107.32441179275514 C566.2440599174499,111.52441179275513 563.1440599174499,115.52441179275513 558.94405991745,119.32441179275514 C554.7440599174499,123.12441179275515 549.64405991745,127.02441179275513 543.5440599174499,130.9244117927551 C537.44405991745,134.82441179275514 530.5440599174499,139.12441179275515 522.64405991745,143.82441179275514 C526.34405991745,145.02441179275513 530.5440599174499,146.12441179275515 535.44405991745,147.12441179275515 C540.34405991745,148.12441179275515 545.7440599174499,148.52441179275513 551.64405991745,148.52441179275513 C558.44405991745,148.52441179275513 563.04405991745,146.32441179275514 565.44405991745,142.02441179275513 C566.1440599174499,141.32441179275514 566.7440599174499,141.32441179275514 567.44405991745,141.9244117927551 C568.04405991745,142.52441179275513 568.1440599174499,143.4244117927551 567.84405991745,144.62441179275515 C565.44405991745,148.62441179275515 562.44405991745,151.72441179275512 558.94405991745,153.9244117927551 C555.44405991745,156.12441179275515 551.14405991745,157.22441179275512 545.94405991745,157.22441179275512 C541.0440599174499,157.22441179275512 536.84405991745,156.72441179275512 533.14405991745,155.82441179275514 C529.44405991745,154.82441179275514 526.2440599174499,153.9244117927551 523.34405991745,153.12441179275515 C520.44405991745,152.22441179275512 517.84405991745,151.72441179275512 515.5440599174499,151.4244117927551 C513.14405991745,151.12441179275515 510.94405991745,151.72441179275512 508.64405991745,153.12441179275515 C507.14405991745,154.02441179275513 505.84405991744995,154.82441179275514 504.84405991744995,155.52441179275513 C503.84405991744995,156.22441179275512 502.94405991745,156.82441179275514 502.14405991745,157.32441179275514 C501.24405991744993,157.32441179275514 500.84405991744995,156.72441179275512 500.84405991744995,155.62441179275515 C500.84405991744995,154.52441179275513 501.24405991744993,153.52441179275513 502.14405991745,152.62441179275515 C509.64405991745,147.52441179275513 516.94405991745,143.02441179275513 524.0440599174499,138.9244117927551 C531.14405991745,134.82441179275514 537.5440599174499,130.72441179275512 543.0440599174499,126.62441179275515 C548.64405991745,122.52441179275513 553.0440599174499,118.22441179275512 556.34405991745,113.62441179275515 C559.6440599174499,109.02441179275513 561.34405991745,103.62441179275515 561.34405991745,97.62441179275515 C561.34405991745,93.12441179275515 559.94405991745,89.62441179275515 557.1440599174499,87.22441179275512 C554.34405991745,84.82441179275514 550.64405991745,83.52441179275513 545.94405991745,83.52441179275513 C540.34405991745,83.52441179275513 535.7440599174499,85.42441179275511 531.94405991745,89.32441179275514 C528.14405991745,93.22441179275512 525.7440599174499,97.82441179275514 524.5440599174499,103.42441179275511 C524.0440599174499,103.92441179275511 523.44405991745,103.92441179275511 522.7440599174499,103.42441179275511 C522.0440599174499,102.92441179275511 521.64405991745,102.22441179275512 521.44405991745,101.32441179275514 C522.14405991745,98.22441179275512 523.44405991745,95.12441179275515 525.2440599174499,92.02441179275513 C527.0440599174499,89.02441179275513 529.34405991745,86.22441179275512 532.0440599174499,83.82441179275514 C534.7440599174499,81.42441179275511 537.94405991745,79.42441179275511 541.5440599174499,77.92441179275511 C545.14405991745,76.22441179275512 549.14405991745,75.52441179275513 553.44405991745,75.52441179275513 z" style="paint-order: fill; fill: url(#gradient-0);"/>
  </g>
</svg>